<svg width="1000" height="70" xmlns="http://www.w3.org/2000/svg"><defs><linearGradient id="a" gradientTransform="rotate(90)"><stop offset="5%" stop-color="#5a4ff5"/><stop offset="95%" stop-color="#837bf7"/></linearGradient><linearGradient id="b" gradientTransform="rotate(90)"><stop offset="5%" stop-color="#faebd7"/><stop offset="95%" stop-color="#fbf0e1"/></linearGradient></defs><path fill="#efedff" d="M0 0h1000v70H0z"/><path d="M0 23c36.222-2.29 72.444-4.58 108-4 35.556.58 70.444 4.029 109 6s80.778 2.465 116 1c35.222-1.465 63.445-4.888 103-6s90.442.086 128 0c37.558-.086 61.788-1.457 95 0s75.407 5.741 116 7c40.593 1.259 79.583-.507 122-2 42.417-1.493 88.262-2.712 106-3 17.738-.288 7.369.356 37 1l-40 47H0Z" fill="url(#a)"/><path d="M0 46c39.188 1.95 78.375 3.901 114 3 35.625-.901 67.687-4.654 105-6s79.878-.285 120 1 77.8 2.794 114 2 70.92-3.89 105-3c34.08.89 67.519 5.766 106 7 38.481 1.234 82.005-1.174 117-3 34.995-1.826 61.46-3.068 102-3 40.54.068 95.154 1.448 117 2 21.846.552 10.923.276 40 0l-40 24H0Z" fill="url(#b)"/></svg>